 <svg version="1.0" xmlns="http://www.w3.org/2000/svg" width="700.000000pt" height="605.000000pt" viewBox="0 0 700.000000 605.000000" preserveAspectRatio="xMidYMid meet">
<g transform="translate(0.000000,605.000000) scale(0.100000,-0.100000)" fill="#000000" stroke="none">
<path d="M3245 5714 c-203 -22 -442 -77 -639 -149 -666 -241 -1184 -706 -1496
-1340 -79 -160 -176 -427 -201 -552 l-13 -63 -263 0 c-293 0 -324 -5 -366 -64
-22 -31 -22 -34 -25 -471 -2 -405 -1 -443 15 -474 10 -19 31 -44 46 -55 27
-20 45 -21 310 -26 l281 -5 26 -105 c181 -721 680 -1354 1336 -1697 374 -195
736 -293 1149 -309 615 -25 1237 176 1730 561 451 350 798 877 939 1425 l33
125 281 5 c264 5 282 6 309 26 15 11 36 36 46 55 16 31 17 69 15 474 -3 437
-3 440 -25 471 -42 59 -73 64 -366 64 l-263 0 -13 63 c-26 129 -122 392 -200
552 -83 167 -212 370 -327 515 -37 47 -126 144 -198 215 -387 385 -887 639
-1447 736 -100 17 -173 22 -379 24 -140 2 -273 1 -295 -1z m475 -1008 c198
-27 350 -74 530 -167 314 -162 578 -426 730 -729 29 -57 80 -182 80 -195 0 -3
-702 -5 -1560 -5 -858 0 -1560 2 -1560 5 0 2 11 33 24 67 77 206 227 424 404
588 372 345 858 501 1352 436z m1340 -2197 c0 -22 -74 -189 -121 -271 -130
-228 -313 -420 -544 -571 -494 -322 -1124 -351 -1655 -76 -279 145 -518 370
-672 633 -43 72 -127 261 -128 284 0 9 319 12 1560 12 1089 0 1560 -3 1560
-11z" />
</g>
</svg>